# xmcd
#
# Track frame offsets: 
#        150
#        36932
#        67205
#        92982
#        109697
#        147782
#        176132
#        211762
#        227405
#        254197
#        277250
#        289535
#        323555
#
# Disc length: 4751 seconds
#
# Revision: 2
# Processed by: cddbd v1.5.2PL0 Copyright (c) Steve Scherf et al.
# Submitted via: ExactAudioCopy v0.99pb5
#
DISCID=c9128d0d
DTITLE=Joshua Redman - Elastic
DYEAR=2002
DGENRE=Jazz
TTITLE0=Molten Soul
TTITLE1=Jazz Crimes
TTITLE2=The Long Way Home
TTITLE3=Oumou
TTITLE4=Still Pushin' That Rock
TTITLE5=Can a Good Thing Last Forever?
TTITLE6=Boogielastic
TTITLE7=Unknowing
TTITLE8=News from the Front
TTITLE9=Letting Go
TTITLE10=The Birthday Song, Part 1
TTITLE11=The Birthday Song, Part 2
TTITLE12=Enhanced CD Data
EXTD=YEAR: 2002
EXTT0=
EXTT1=
EXTT2=
EXTT3=
EXTT4=
EXTT5=
EXTT6=
EXTT7=
EXTT8=
EXTT9=
EXTT10=
EXTT11=
EXTT12=
PLAYORDER=
